<?xml version="1.0" encoding="UTF-8" standalone="no"?>
<!-- Created with Inkscape (http://www.inkscape.org/) -->

<svg
   width="50"
   height="50"
   viewBox="0 0 50 50"
   version="1.1"
   id="svg12674"
   xmlns="http://www.w3.org/2000/svg"
>

  <defs
     id="defs12678">
    <clipPath
       clipPathUnits="userSpaceOnUse"
       id="clipPath14222">
      <path
         id="path14224"
         style="fill:#ff0000;fill-opacity:1;fill-rule:nonzero;stroke:none"
         d="m 46.552734,46.921875 v 2 h 0.664063 c -7.55e-4,-0.0054 -0.0016,-0.01177 -0.002,-0.01758 -0.0081,-0.123431 -0.01703,-0.245429 -0.01953,-0.369141 -1.26e-4,-0.0062 0.0016,-0.01186 0.002,-0.01758 -0.04298,-0.02812 -0.08275,-0.06115 -0.121094,-0.0957 -0.01436,-0.01472 -0.02861,-0.0302 -0.04297,-0.04492 -0.0784,-0.08037 -0.04677,-0.160276 0.01758,-0.164062 0.02925,-0.0017 0.06418,0.01211 0.09961,0.04883 0.01192,0.01235 0.02519,0.02475 0.03711,0.03711 0.03766,0.03471 0.07476,0.06772 0.119141,0.09375 0.05451,0.03197 0.01223,0.0046 0.06055,0.02734 0.0015,6e-4 8.59e-4,0.0027 0.002,0.0039 0.103898,0.125934 0.16347,0.187423 0.002,0.164063 -0.0033,-4.81e-4 -0.0065,-0.0014 -0.0098,-0.002 0.0037,0.102991 0.01088,0.205677 0.01758,0.308593 6.19e-4,0.0095 4.94e-4,0.01892 0,0.02734 h 1.173828 v -2 z m 1.232422,0.267578 c 0.163299,-0.0027 0.165173,0.163316 0.002,0.166016 -0.09057,0.0015 -0.180914,0.0025 -0.271484,0.0039 -0.130177,0.0011 -0.260447,-0.0015 -0.390625,-0.002 -0.05131,6.4e-4 -0.101864,0.0039 -0.152344,0.01367 -0.16028,0.03123 -0.195163,-0.12955 -0.03516,-0.16211 0.06106,-0.01243 0.123417,-0.01452 0.185547,-0.01563 0.130496,2e-4 0.262084,0.0032 0.392578,0.002 0.09016,-0.0014 0.179371,-0.0044 0.269531,-0.0059 z m -1.15625,0.404297 c 0.02153,-0.0023 0.04722,-3.36e-4 0.07617,0.0098 0.05794,0.01993 0.119008,0.02472 0.179688,0.02539 0.163308,0.0018 0.159317,0.167663 -0.0039,0.164063 -0.08057,-0.0018 -0.159988,-0.0069 -0.236328,-0.03516 -0.124437,-0.04602 -0.108883,-0.153895 -0.01563,-0.164062 z m 0.664063,0.0098 c 0.167744,-0.0075 0.173649,0.156562 0.0059,0.164062 -0.03408,0.0015 -0.06756,0.003 -0.101562,0.0059 -0.167351,0.01418 -0.184839,-0.148793 -0.01758,-0.164063 0.0376,-0.0034 0.07557,-0.0042 0.113281,-0.0059 z" />
    </clipPath>
    <clipPath
       clipPathUnits="userSpaceOnUse"
       id="clipPath14239">
      <path
         id="path14241"
         style="fill:#ff0000;fill-opacity:1;fill-rule:nonzero;stroke:none"
         d="m 0,0 v 50 h 50 v -1.683594 c -0.141939,-0.0047 -0.290996,-0.0097 -0.357422,-0.01172 -0.116355,-0.0035 -0.35289,-0.01114 -0.480469,-0.01172 -0.05115,-3e-4 -0.09325,0.0036 -0.142578,0.0059 -0.167775,0.0078 -0.18143,-0.157916 -0.01367,-0.166016 0.03984,-0.0019 0.07493,-0.0032 0.113282,-0.0039 0.01278,-2.46e-4 0.02518,-5.4e-5 0.03906,0 0.134919,5.3e-4 0.362093,0.0078 0.488281,0.01172 0.06516,0.002 0.212493,0.007 0.353516,0.01172 V 0 Z" />
    </clipPath>
    <clipPath
       clipPathUnits="userSpaceOnUse"
       id="clipPath15272">
      <path
         id="path15274"
         style="fill:#ff0000;fill-opacity:1;fill-rule:nonzero;stroke:none"
         d="m 44.322266,44.277344 v 5.695312 h 5.871093 v -4.945312 c -0.0012,0.0042 -0.0024,0.0076 -0.0039,0.01172 -0.0035,0.0093 -0.0073,0.01844 -0.01172,0.02734 -0.01091,0.02293 -0.02723,0.04289 -0.04687,0.05859 -0.01092,0.0093 -0.02402,0.01403 -0.03711,0.01953 -0.002,8e-4 -0.0039,0.0031 -0.0059,0.0039 -0.01196,0.0046 -0.0219,0.0046 -0.0293,0.002 -1.93e-4,0.0015 -0.0017,0.0025 -0.002,0.0039 5.97e-4,0.002 0.0015,0.0036 0.002,0.0059 0.0013,0.0062 0.0039,0.01353 0.0059,0.01953 0.01473,0.0454 -0.03008,0.05904 -0.04492,0.01367 -0.0025,-0.0077 -0.0043,-0.01554 -0.0059,-0.02344 -0.0016,-0.0079 -0.0011,-0.01397 0,-0.01953 -3.17e-4,-0.0025 -0.002,-0.005 -0.002,-0.0078 v -0.0078 c -3e-6,-0.0085 2.1e-5,-0.01689 0,-0.02539 -2.5e-5,-0.0096 1.09e-4,-0.0197 0,-0.0293 -1.43e-4,-0.01034 4.74e-4,-0.02092 0,-0.03125 -5e-4,-0.01011 -3.77e-4,-0.01925 -0.002,-0.0293 -8.42e-4,-0.0073 0.0022,-0.01217 0.0039,-0.01758 V 45 c -0.0038,-0.01056 -0.0058,-0.01852 -0.0039,-0.02539 v -0.002 c -0.0014,-0.0046 -0.002,-0.0096 -0.002,-0.01563 v -0.0078 -0.02734 c -5.83e-4,-0.0016 4.29e-4,-0.004 0,-0.0059 -8.67e-4,-0.0037 -0.002,-0.0072 -0.002,-0.01172 V 44.8925 44.8593 44.81828 44.78703 c -3.86e-4,-0.0047 1.1e-5,-0.0092 0,-0.01367 v -0.02148 -0.01563 c 0,-0.02387 0.01172,-0.03711 0.02344,-0.03711 0.01172,0 0.02344,0.01324 0.02344,0.03711 v 0.01563 0.02148 c 0.0097,0.0024 0.01716,0.01416 0.01563,0.03516 -2e-4,0.0029 1.17e-4,0.0049 0,0.0078 0.0034,-0.0018 0.0063,-0.003 0.01172,-0.0039 0.0019,-3.32e-4 0.0037,2.25e-4 0.0059,0 0.01649,-0.0017 0.02289,0.03307 0.02539,0.04297 0.0017,-0.0071 0.0087,-0.01149 0.01758,-0.01172 0.007,-1.77e-4 0.01718,0.0016 0.02734,0.0078 0.01973,0.01212 0.02555,0.03357 0.03125,0.05469 0.0023,0.01006 0.0041,0.021 0.0059,0.03125 v -0.660156 z m 5.791015,0.589844 c 1.84e-4,0.0033 -4.05e-4,0.0066 0,0.0098 h 0.002 c -0.0019,-0.0032 -0.0012,-0.0068 -0.002,-0.0098 z" />
    </clipPath>
  </defs>
  <path
     id="path3992"
     style="fill:none;fill-opacity:1;stroke:none;stroke-width:1.1;stroke-dasharray:none;stroke-opacity:0.577964;paint-order:markers fill stroke"
     d="m 10.613281,13.248047 0.06055,15.902344 19.816406,0.160156 -0.113281,-15.992188 z m 15.490235,10.826172 c 0.135661,-0.0054 0.171818,0.101592 0.0957,0.160156 0.02303,0.05989 -0.03088,0.128816 -0.150391,0.115234 -0.03243,-0.0037 -0.06377,-0.0087 -0.0957,-0.01367 -0.05652,0.04868 -0.0975,0.109345 -0.123047,0.179687 -0.0079,0.08042 0.01075,0.139172 0.06055,0.201172 0.04385,0.04009 0.121861,0.09737 0.181641,0.105469 0.03495,-0.01234 0.06615,-0.0358 0.09375,-0.06055 0.04233,-0.03885 0.0814,-0.08447 0.109375,-0.134766 0.02114,-0.04451 0.01697,-0.09467 0.01367,-0.142578 -0.0012,-0.03055 -0.0069,-0.06014 -0.01367,-0.08984 -0.04281,-0.187622 0.151716,-0.229312 0.191406,-0.04102 0.0083,0.03952 0.01403,0.07864 0.01563,0.11914 0.0049,0.08659 0.0036,0.173863 -0.03906,0.251953 -0.04027,0.0683 -0.09079,0.130934 -0.15039,0.183594 -0.07655,0.06476 -0.162982,0.117396 -0.267578,0.103516 -0.01743,-0.0048 -0.03376,-0.0095 -0.05078,-0.01563 -0.09087,-0.03281 -0.172621,-0.0949 -0.238281,-0.164063 -0.01339,-0.01856 -0.02916,-0.03512 -0.04102,-0.05469 -0.06054,-0.09984 -0.07236,-0.217682 -0.04687,-0.330078 0.0079,-0.02006 0.01434,-0.041 0.02344,-0.06055 0.01,-0.02138 0.02466,-0.04054 0.03711,-0.06055 -0.05065,0.006 -0.100905,0.01673 -0.15039,0.0293 -0.08798,0.02495 -0.173969,0.05625 -0.261719,0.08203 -0.09457,0.02827 -0.191079,0.05156 -0.287109,0.07422 -0.187299,0.0442 -0.230265,-0.145263 -0.04297,-0.189453 0.09264,-0.02186 0.184171,-0.04496 0.275391,-0.07227 0.09016,-0.02644 0.178971,-0.05696 0.269531,-0.08203 0.08809,-0.02207 0.176851,-0.03765 0.267578,-0.04102 0.01296,-4.81e-4 0.02605,-3e-6 0.03906,0 0.02947,0.0011 0.05888,0.0026 0.08789,0.0059 0.05654,-0.03019 0.108807,-0.04921 0.179688,-0.05664 0.006,-6.29e-4 0.01193,-0.0017 0.01758,-0.002 z" />
  <path
     style="fill:none;fill-opacity:1;stroke:none;stroke-width:1.1;stroke-dasharray:none;stroke-opacity:0.577964;paint-order:markers fill stroke"
     id="path4046"
     d="m 25.358248,18.224851 -3.619822,-1.848432 -3.574826,1.934018 0.639377,-4.013851 -2.944042,-2.802218 4.014978,-0.632264 1.755308,-3.665884 1.842016,3.623091 4.028882,0.536576 -2.87655,2.871458 z"
  />
  <path
     id="path4048"
     style="fill:none;fill-opacity:1;stroke:none;stroke-width:1.1;stroke-dasharray:none;stroke-opacity:0.577964;paint-order:markers fill stroke"
     d="M 29.253906,1.0527344 22.626953,8.109375 13.056641,6.6523438 17.71875,15.134766 13.375,23.787109 l 9.509766,-1.814453 2.314453,2.289063 c 0.0143,-0.0041 0.02868,-0.0074 0.04297,-0.01172 0.09016,-0.02644 0.178971,-0.05696 0.269531,-0.08203 0.08809,-0.02207 0.176851,-0.03765 0.267578,-0.04102 0.01296,-4.81e-4 0.02605,-3e-6 0.03906,0 0.02947,0.0011 0.05888,0.0026 0.08789,0.0059 0.05654,-0.03019 0.108807,-0.04921 0.179688,-0.05664 0.006,-6.29e-4 0.01193,-0.0017 0.01758,-0.002 0.134728,-0.0054 0.169739,0.09938 0.0957,0.158203 0.02456,0.06024 -0.02985,0.130886 -0.150391,0.117187 -0.03243,-0.0037 -0.06377,-0.0087 -0.0957,-0.01367 -0.05652,0.04868 -0.0975,0.109345 -0.123047,0.179687 -0.0079,0.08042 0.01075,0.139172 0.06055,0.201172 0.04385,0.04009 0.121861,0.09737 0.181641,0.105469 0.03495,-0.01234 0.06615,-0.0358 0.09375,-0.06055 0.04233,-0.03885 0.0814,-0.08447 0.109375,-0.134766 0.02114,-0.04451 0.01697,-0.09467 0.01367,-0.142578 -0.0012,-0.03055 -0.0069,-0.06014 -0.01367,-0.08984 -0.04281,-0.187622 0.151716,-0.229312 0.191406,-0.04102 0.0083,0.03952 0.01403,0.07864 0.01563,0.11914 0.0049,0.08659 0.0036,0.173863 -0.03906,0.251953 -0.04027,0.0683 -0.09079,0.130934 -0.15039,0.183594 -0.07655,0.06476 -0.162982,0.117396 -0.267578,0.103516 -0.01743,-0.0048 -0.03376,-0.0095 -0.05078,-0.01563 -0.01947,-0.007 -0.03808,-0.01589 -0.05664,-0.02539 l 3.851562,3.808594 1.212891,-9.605469 8.601562,-4.445312 -8.759765,-4.123047 z M 25.708984,24.326172 c -0.05065,0.006 -0.100905,0.01673 -0.15039,0.0293 -0.06735,0.0191 -0.132518,0.04323 -0.199219,0.06445 l 0.310547,0.30664 c -0.03769,-0.088 -0.04283,-0.185165 -0.02148,-0.279296 0.0079,-0.02006 0.01434,-0.041 0.02344,-0.06055 0.01,-0.02138 0.02466,-0.04054 0.03711,-0.06055 z" />
  <path
     style="fill:none;fill-opacity:1;stroke:none;stroke-width:1.1;stroke-dasharray:none;stroke-opacity:0.577964;paint-order:markers fill stroke"
     id="path4050"
     d="m 15.490818,20.902059 1.502954,7.704094 7.648401,-1.764624 -6.86259,3.810091 4.041742,6.728763 -5.744268,-5.349329 -5.150467,5.923227 3.312438,-7.116157 -7.2249061,-3.068007 7.7914671,0.951302 z"
  />
  <path
     style="fill:none;fill-opacity:1;stroke:none;stroke-width:1.1;stroke-dasharray:none;stroke-opacity:0.577964;paint-order:markers fill stroke"
     id="path4052"
     d="m 20.951086,23.947927 -1.386337,0.589137 0.636039,1.365454 -0.988704,-1.136431 -1.102078,1.026858 0.775284,-1.29149 -1.317161,-0.730822 1.467856,0.338246 0.288028,-1.47853 0.131901,1.500538 z"
  />
  <path
     style="fill:none;fill-opacity:1;fill-rule:evenodd;stroke:#000000;stroke-width:1;stroke-linejoin:miter;stroke-dasharray:none;stroke-opacity:1;paint-order:markers fill stroke"
     d="M 0,0.5025 H 50"
     id="path14307" />
  <path
     style="fill:none;fill-opacity:1;fill-rule:evenodd;stroke:#000000;stroke-width:1;stroke-linejoin:miter;stroke-dasharray:none;stroke-opacity:1;paint-order:markers fill stroke"
     d="M 0.5,0 V 50"
     id="path14324" />
  <path
     style="fill:none;fill-opacity:1;fill-rule:evenodd;stroke:#000000;stroke-width:1;stroke-linejoin:miter;stroke-dasharray:none;stroke-opacity:1;paint-order:markers fill stroke"
     d="M 0,49.5 H 40"
     id="path14326" />
  <path
     style="fill:none;fill-opacity:1;fill-rule:evenodd;stroke:#000000;stroke-width:0.942809;stroke-linejoin:miter;stroke-dasharray:none;stroke-opacity:1;paint-order:markers fill stroke"
     d="M 49.5,0 V 40"
     id="path14328" />
  <path
     style="fill:none;fill-opacity:1;fill-rule:evenodd;stroke:#000000;stroke-width:1;stroke-linejoin:miter;stroke-dasharray:none;stroke-opacity:1;paint-order:markers fill stroke"
     d="M 37.646936,51.686888 52.320309,37.013515"
     id="path16747" />
</svg>
