<svg xmlns="http://www.w3.org/2000/svg" viewBox="0 0 50 50">
  <path style="fill:none;fill-opacity:1;stroke:none;stroke-width:1.1;stroke-dasharray:none;stroke-opacity:.577964;paint-order:markers fill stroke" d="m10.613 13.248.06 15.902 19.817.16-.113-15.992zm15.49 10.826c.136-.005.172.102.096.16.023.06-.03.13-.15.116l-.096-.014a.425.425 0 0 0-.123.18.25.25 0 0 0 .06.2.42.42 0 0 0 .182.106.29.29 0 0 0 .094-.06.55.55 0 0 0 .11-.135c.02-.045.016-.095.013-.143a.49.49 0 0 0-.014-.09c-.042-.187.152-.229.192-.04a.668.668 0 0 1 .015.119.458.458 0 0 1-.039.252.76.76 0 0 1-.15.183c-.077.065-.163.118-.268.104a.639.639 0 0 1-.29-.18c-.012-.019-.028-.035-.04-.055a.442.442 0 0 1-.047-.33l.024-.06c.01-.022.025-.04.037-.06-.05.005-.1.016-.15.028-.088.025-.174.057-.262.082a5.058 5.058 0 0 1-.287.075c-.188.044-.23-.146-.043-.19.092-.022.184-.045.275-.072.09-.026.18-.057.27-.082.088-.022.177-.038.267-.041h.04l.087.006a.46.46 0 0 1 .18-.057l.018-.002z"/>
  <path style="fill:none;fill-opacity:1;stroke:none;stroke-width:1.1;stroke-dasharray:none;stroke-opacity:.577964;paint-order:markers fill stroke" d="m25.358 18.225-3.62-1.849-3.574 1.934.639-4.013-2.944-2.803 4.015-.632 1.755-3.666 1.842 3.623 4.03.537-2.877 2.871z"/>
  <path style="fill:none;fill-opacity:1;stroke:none;stroke-width:1.1;stroke-dasharray:none;stroke-opacity:.577964;paint-order:markers fill stroke" d="m29.254 1.053-6.627 7.056-9.57-1.457 4.662 8.483-4.344 8.652 9.51-1.814 2.314 2.289.043-.012c.09-.026.18-.057.27-.082.088-.022.177-.038.267-.041h.04l.087.006a.46.46 0 0 1 .18-.057l.018-.002c.134-.005.17.1.095.158.025.06-.03.131-.15.118l-.096-.014a.425.425 0 0 0-.123.18.25.25 0 0 0 .06.2.42.42 0 0 0 .182.106.29.29 0 0 0 .094-.06.55.55 0 0 0 .11-.135c.02-.045.016-.095.013-.143a.49.49 0 0 0-.014-.09c-.042-.187.152-.229.192-.04a.668.668 0 0 1 .015.119.458.458 0 0 1-.039.252.76.76 0 0 1-.15.183c-.077.065-.163.118-.268.104a.676.676 0 0 1-.107-.041l3.852 3.808 1.212-9.605 8.602-4.446-8.76-4.123zm-3.545 23.273c-.05.006-.1.017-.15.03-.068.019-.133.043-.2.064l.31.307a.452.452 0 0 1-.02-.28c.007-.02.014-.04.023-.06.01-.022.025-.04.037-.06z"/>
  <path style="fill:none;fill-opacity:1;stroke:none;stroke-width:1.1;stroke-dasharray:none;stroke-opacity:.577964;paint-order:markers fill stroke" d="m15.49 20.902 1.504 7.704 7.648-1.764-6.862 3.81 4.041 6.728-5.744-5.349-5.15 5.923 3.312-7.116-7.225-3.068 7.792.951z"/>
  <path style="fill:none;fill-opacity:1;stroke:none;stroke-width:1.1;stroke-dasharray:none;stroke-opacity:.577964;paint-order:markers fill stroke" d="m20.951 23.948-1.386.59.636 1.365-.989-1.137-1.102 1.027.775-1.292-1.317-.73 1.468.338.288-1.479.132 1.5z"/>
  <path style="fill:none;fill-opacity:1;fill-rule:evenodd;stroke:#000;stroke-width:1;stroke-linejoin:miter;stroke-dasharray:none;stroke-opacity:1;paint-order:markers fill stroke" d="M0 .502h50M.5 0v50m-.5-.5h40"/>
  <path style="fill:none;fill-opacity:1;fill-rule:evenodd;stroke:#000;stroke-width:.942809;stroke-linejoin:miter;stroke-dasharray:none;stroke-opacity:1;paint-order:markers fill stroke" d="M49.5 0v40"/>
  <path style="fill:none;fill-opacity:1;fill-rule:evenodd;stroke:#000;stroke-width:1;stroke-linejoin:miter;stroke-dasharray:none;stroke-opacity:1;paint-order:markers fill stroke" d="M37.647 51.687 52.32 37.014"/>
</svg>